<svg width="1600" height="420" viewBox="0 0 1600 420" fill="none" xmlns="http://www.w3.org/2000/svg">
  <rect width="1600" height="420" fill="#E2E8F0"/>
  <rect x="120" y="120" width="520" height="180" fill="#CBD5F5"/>
  <rect x="680" y="120" width="800" height="180" fill="#D7E0F6"/>
  <rect x="120" y="150" width="340" height="18" fill="#94A3B8"/>
  <rect x="120" y="184" width="400" height="18" fill="#94A3B8"/>
  <rect x="120" y="218" width="280" height="18" fill="#94A3B8"/>
  <rect x="710" y="150" width="420" height="18" fill="#94A3B8"/>
  <rect x="710" y="184" width="520" height="18" fill="#94A3B8"/>
  <rect x="710" y="218" width="360" height="18" fill="#94A3B8"/>
</svg>
<svg width="1600" height="420" viewBox="0 0 1600 420" fill="none" xmlns="http://www.w3.org/2000/svg">
  <rect width="1600" height="420" fill="#E2E8F0"/>
  <rect x="120" y="120" width="520" height="180" fill="#CBD5F5"/>
  <rect x="680" y="120" width="800" height="180" fill="#D7E0F6"/>
  <rect x="120" y="150" width="340" height="18" fill="#94A3B8"/>
  <rect x="120" y="184" width="400" height="18" fill="#94A3B8"/>
  <rect x="120" y="218" width="280" height="18" fill="#94A3B8"/>
  <rect x="710" y="150" width="420" height="18" fill="#94A3B8"/>
  <rect x="710" y="184" width="520" height="18" fill="#94A3B8"/>
  <rect x="710" y="218" width="360" height="18" fill="#94A3B8"/>
</svg>
